<svg xmlns="http://www.w3.org/2000/svg" viewBox="0 0 32 32" width="32" height="32">
  <defs>
    <linearGradient id="aurora" x1="0%" y1="0%" x2="100%" y2="100%">
      <stop offset="0%" stop-color="#0A84FF"/>
      <stop offset="50%" stop-color="#BF5AF2"/>
      <stop offset="100%" stop-color="#FF375F"/>
    </linearGradient>
    <linearGradient id="inner" x1="0%" y1="0%" x2="100%" y2="100%">
      <stop offset="0%" stop-color="#4FA8FF"/>
      <stop offset="100%" stop-color="#64D2FF"/>
    </linearGradient>
  </defs>
  <!-- Rounded square background -->
  <rect x="1" y="1" width="30" height="30" rx="8" fill="url(#aurora)"/>
  <!-- AI brain/network node pattern -->
  <!-- Central sparkle -->
  <path d="M16 6 L17.5 13.5 L24 12 L18 16 L24 20 L17.5 18.5 L16 26 L14.5 18.5 L8 20 L14 16 L8 12 L14.5 13.5 Z" fill="white" opacity="0.95"/>
  <!-- Connection dots -->
  <circle cx="16" cy="16" r="2.5" fill="url(#inner)"/>
  <circle cx="8" cy="12" r="1.3" fill="white" opacity="0.7"/>
  <circle cx="24" cy="12" r="1.3" fill="white" opacity="0.7"/>
  <circle cx="8" cy="20" r="1.3" fill="white" opacity="0.7"/>
  <circle cx="24" cy="20" r="1.3" fill="white" opacity="0.7"/>
  <circle cx="16" cy="6" r="1.3" fill="white" opacity="0.7"/>
  <circle cx="16" cy="26" r="1.3" fill="white" opacity="0.7"/>
</svg>
